<svg xmlns="http://www.w3.org/2000/svg" viewBox="0 0 416.98 101.69"><defs><style>.cls-1{font-size:90.27px;font-family:Roboto-Bold, Roboto;font-weight:700;}.cls-1,.cls-4,.cls-5{fill:#f1f2f6;}.cls-2{letter-spacing:0.01em;}.cls-3{fill:#8cc63f;}.cls-5{font-size:45.13px;font-family:Paradox, Paradox;}</style></defs><title>Fichier 2</title><g id="Calque_2" data-name="Calque 2"><g id="logo"><text class="cls-1" transform="translate(0 77.22)"><tspan xml:space="preserve">MEM   R</tspan><tspan class="cls-2" x="332.26" y="0">I</tspan><tspan x="359.54" y="0">A</tspan></text><rect class="cls-3" x="211" y="13.35" width="61" height="61" rx="11" ry="11"/><path class="cls-4" d="M261,14.35a10,10,0,0,1,10,10v39a10,10,0,0,1-10,10H222a10,10,0,0,1-10-10v-39a10,10,0,0,1,10-10h39m0-2H222a12,12,0,0,0-12,12v39a12,12,0,0,0,12,12h39a12,12,0,0,0,12-12v-39a12,12,0,0,0-12-12Z"/><text class="cls-5" transform="translate(225.06 58.81)">?</text></g></g></svg>